<?xml version="1.0" encoding="utf-8"?>
<!-- Generator: Adobe Illustrator 25.0.1, SVG Export Plug-In . SVG Version: 6.00 Build 0)  -->
<svg version="1.1" id="Layer_1" xmlns="http://www.w3.org/2000/svg" xmlns:xlink="http://www.w3.org/1999/xlink" x="0px" y="0px"
	 viewBox="0 0 170 100" style="enable-background:new 0 0 170 100;" xml:space="preserve">
<g>
	<g>
		<g>
			<path d="M20.63,72.41v-6.79h2.17c0.42,0,0.78,0.04,1.08,0.12c0.3,0.08,0.55,0.2,0.74,0.35c0.19,0.15,0.34,0.34,0.43,0.56
				c0.09,0.22,0.14,0.47,0.14,0.74c0,0.17-0.03,0.33-0.08,0.48c-0.05,0.16-0.13,0.3-0.24,0.43c-0.11,0.13-0.24,0.25-0.4,0.35
				c-0.16,0.1-0.35,0.19-0.56,0.26c0.5,0.1,0.87,0.28,1.12,0.54c0.25,0.26,0.38,0.6,0.38,1.02c0,0.29-0.05,0.55-0.16,0.79
				c-0.11,0.24-0.26,0.44-0.46,0.61s-0.45,0.3-0.75,0.4c-0.3,0.09-0.63,0.14-1.01,0.14H20.63z M21.55,68.66h1.21
				c0.26,0,0.48-0.03,0.67-0.08s0.35-0.14,0.47-0.24c0.12-0.1,0.22-0.22,0.28-0.37c0.06-0.14,0.09-0.3,0.09-0.47
				c0-0.4-0.12-0.69-0.36-0.88s-0.61-0.28-1.12-0.28h-1.25V68.66z M21.55,69.31v2.36h1.47c0.26,0,0.49-0.03,0.67-0.09
				c0.19-0.06,0.34-0.14,0.46-0.25c0.12-0.11,0.21-0.24,0.27-0.39c0.06-0.15,0.08-0.32,0.08-0.5c0-0.35-0.12-0.63-0.37-0.83
				c-0.25-0.2-0.62-0.31-1.12-0.31H21.55z"/>
			<path d="M29.74,72.41h-0.92v-6.79h0.92V72.41z"/>
			<path d="M36.01,70.06c0,0.38-0.05,0.72-0.14,1.02c-0.09,0.3-0.23,0.55-0.41,0.76c-0.18,0.21-0.4,0.37-0.67,0.48
				s-0.57,0.17-0.91,0.17c-0.31,0-0.62-0.04-0.96-0.13c0.01-0.09,0.01-0.18,0.02-0.27c0.01-0.09,0.02-0.18,0.03-0.27
				c0.01-0.05,0.03-0.1,0.06-0.13c0.03-0.03,0.08-0.05,0.15-0.05c0.06,0,0.13,0.01,0.23,0.04s0.22,0.04,0.38,0.04
				c0.21,0,0.39-0.03,0.56-0.09c0.16-0.06,0.3-0.16,0.41-0.29c0.11-0.13,0.2-0.3,0.25-0.51c0.06-0.21,0.09-0.45,0.09-0.74v-4.46
				h0.91V70.06z"/>
			<path d="M45.86,69.01c0,0.51-0.08,0.98-0.24,1.4c-0.16,0.42-0.39,0.79-0.68,1.1c-0.29,0.31-0.65,0.54-1.06,0.71
				s-0.87,0.25-1.37,0.25c-0.5,0-0.95-0.08-1.36-0.25c-0.41-0.17-0.76-0.41-1.06-0.71c-0.29-0.31-0.52-0.67-0.68-1.1
				c-0.16-0.42-0.24-0.89-0.24-1.4c0-0.51,0.08-0.97,0.24-1.4s0.39-0.79,0.68-1.1c0.29-0.31,0.65-0.55,1.06-0.72
				c0.41-0.17,0.87-0.26,1.36-0.26c0.5,0,0.95,0.08,1.37,0.26c0.41,0.17,0.76,0.41,1.06,0.72c0.29,0.31,0.52,0.67,0.68,1.1
				C45.78,68.04,45.86,68.51,45.86,69.01z M44.92,69.01c0-0.42-0.06-0.79-0.17-1.12c-0.11-0.33-0.27-0.61-0.48-0.84
				c-0.21-0.23-0.46-0.41-0.76-0.53s-0.63-0.18-0.99-0.18c-0.36,0-0.69,0.06-0.99,0.18s-0.55,0.3-0.76,0.53
				c-0.21,0.23-0.37,0.51-0.49,0.84c-0.11,0.33-0.17,0.71-0.17,1.12s0.06,0.79,0.17,1.12c0.11,0.33,0.28,0.61,0.49,0.84
				c0.21,0.23,0.46,0.4,0.76,0.53c0.3,0.12,0.63,0.18,0.99,0.18c0.37,0,0.7-0.06,0.99-0.18c0.3-0.12,0.55-0.3,0.76-0.53
				c0.21-0.23,0.37-0.51,0.48-0.84S44.92,69.43,44.92,69.01z"/>
			<path d="M51.65,71.68c0.28,0,0.53-0.05,0.75-0.14c0.22-0.09,0.41-0.23,0.56-0.4c0.15-0.17,0.27-0.37,0.35-0.61
				c0.08-0.24,0.12-0.5,0.12-0.78v-4.13h0.91v4.13c0,0.39-0.06,0.75-0.19,1.09c-0.12,0.33-0.3,0.62-0.54,0.87
				c-0.23,0.24-0.52,0.44-0.85,0.58s-0.71,0.21-1.13,0.21c-0.42,0-0.79-0.07-1.13-0.21s-0.62-0.33-0.85-0.58
				c-0.23-0.25-0.41-0.54-0.54-0.87c-0.12-0.33-0.19-0.7-0.19-1.09v-4.13h0.91v4.12c0,0.28,0.04,0.54,0.12,0.78
				c0.08,0.24,0.2,0.44,0.35,0.61c0.15,0.17,0.34,0.3,0.56,0.4C51.12,71.63,51.37,71.68,51.65,71.68z"/>
			<path d="M59.4,68.92l-2.24-3.3h0.91c0.07,0,0.12,0.01,0.15,0.03c0.03,0.02,0.06,0.05,0.09,0.09l1.77,2.72
				c0.02-0.07,0.05-0.14,0.1-0.22l1.67-2.48c0.03-0.04,0.06-0.08,0.09-0.11c0.03-0.03,0.07-0.04,0.12-0.04h0.88l-2.25,3.26
				l2.33,3.53h-0.91c-0.07,0-0.12-0.02-0.16-0.05c-0.04-0.04-0.07-0.08-0.1-0.12l-1.82-2.85c-0.02,0.07-0.05,0.13-0.08,0.19
				l-1.77,2.66c-0.03,0.04-0.06,0.08-0.1,0.12c-0.04,0.04-0.09,0.05-0.15,0.05h-0.85L59.4,68.92z"/>
			<path d="M75.41,69.01c0,0.51-0.08,0.97-0.24,1.39s-0.39,0.77-0.68,1.07c-0.29,0.3-0.65,0.53-1.06,0.69
				c-0.41,0.16-0.87,0.24-1.36,0.24h-2.54v-6.79h2.54c0.5,0,0.95,0.08,1.36,0.24c0.41,0.16,0.76,0.39,1.06,0.69
				c0.29,0.3,0.52,0.66,0.68,1.07S75.41,68.51,75.41,69.01z M74.47,69.01c0-0.42-0.06-0.79-0.17-1.12
				c-0.11-0.33-0.27-0.61-0.48-0.83c-0.21-0.23-0.46-0.4-0.76-0.52c-0.3-0.12-0.63-0.18-0.99-0.18h-1.62v5.3h1.62
				c0.36,0,0.69-0.06,0.99-0.18c0.3-0.12,0.55-0.29,0.76-0.52c0.21-0.23,0.37-0.5,0.48-0.83C74.42,69.8,74.47,69.43,74.47,69.01z"/>
			<path d="M82.74,65.62v0.75h-3.26v2.25h2.64v0.72h-2.64v2.32h3.26v0.75h-4.18v-6.79H82.74z"/>
			<path d="M94.47,71c0.05,0,0.1,0.02,0.14,0.06l0.36,0.39c-0.28,0.32-0.62,0.57-1.01,0.75c-0.4,0.18-0.87,0.27-1.43,0.27
				c-0.49,0-0.93-0.08-1.33-0.25c-0.4-0.17-0.74-0.41-1.02-0.71c-0.28-0.3-0.5-0.67-0.65-1.1c-0.15-0.43-0.23-0.9-0.23-1.41
				s0.08-0.98,0.25-1.41c0.17-0.43,0.4-0.79,0.7-1.1c0.3-0.31,0.66-0.54,1.08-0.71s0.88-0.25,1.39-0.25c0.5,0,0.93,0.08,1.29,0.23
				c0.36,0.16,0.68,0.37,0.96,0.63l-0.3,0.42c-0.02,0.03-0.05,0.06-0.08,0.08s-0.07,0.03-0.12,0.03c-0.04,0-0.08-0.01-0.13-0.04
				s-0.1-0.07-0.16-0.11c-0.06-0.04-0.14-0.09-0.22-0.14c-0.09-0.05-0.19-0.1-0.3-0.14c-0.12-0.04-0.25-0.08-0.41-0.11
				s-0.33-0.04-0.54-0.04c-0.36,0-0.7,0.06-1,0.19c-0.3,0.12-0.56,0.3-0.78,0.53s-0.39,0.51-0.51,0.84
				c-0.12,0.33-0.18,0.7-0.18,1.11c0,0.42,0.06,0.8,0.18,1.13c0.12,0.33,0.29,0.61,0.5,0.84c0.21,0.23,0.46,0.4,0.75,0.52
				s0.6,0.18,0.93,0.18c0.2,0,0.38-0.01,0.54-0.04s0.31-0.06,0.45-0.11c0.14-0.05,0.26-0.11,0.38-0.19
				c0.12-0.08,0.24-0.17,0.36-0.28C94.36,71.03,94.42,71,94.47,71z"/>
			<path d="M99.07,69.57v2.83h-0.91v-6.79h1.92c0.43,0,0.8,0.04,1.11,0.13s0.57,0.21,0.77,0.38c0.2,0.17,0.35,0.36,0.45,0.59
				c0.1,0.23,0.15,0.49,0.15,0.78c0,0.24-0.04,0.46-0.11,0.67c-0.08,0.21-0.19,0.4-0.33,0.56c-0.14,0.17-0.32,0.31-0.53,0.42
				c-0.21,0.12-0.44,0.21-0.7,0.26c0.11,0.07,0.21,0.16,0.3,0.29l1.98,2.7h-0.82c-0.17,0-0.29-0.06-0.37-0.19l-1.76-2.42
				c-0.05-0.08-0.11-0.13-0.18-0.16s-0.16-0.05-0.28-0.05H99.07z M99.07,68.91h0.96c0.27,0,0.5-0.03,0.71-0.1
				c0.2-0.06,0.37-0.16,0.51-0.27c0.14-0.12,0.24-0.26,0.31-0.42s0.1-0.35,0.1-0.54c0-0.4-0.13-0.71-0.4-0.91s-0.66-0.31-1.19-0.31
				h-1V68.91z"/>
			<path d="M110.24,65.62v0.75h-3.26v2.25h2.64v0.72h-2.64v2.32h3.26v0.75h-4.18v-6.79H110.24z M109.83,63.96l-1.39,1.02
				c-0.05,0.04-0.1,0.06-0.14,0.08s-0.09,0.02-0.16,0.02h-0.65l1-0.96c0.03-0.03,0.06-0.06,0.09-0.08c0.03-0.02,0.05-0.03,0.08-0.05
				c0.03-0.01,0.06-0.02,0.09-0.03c0.04,0,0.08-0.01,0.13-0.01H109.83z"/>
			<path d="M119.04,72.41h-0.71c-0.08,0-0.15-0.02-0.2-0.06c-0.05-0.04-0.09-0.09-0.11-0.16l-0.63-1.64h-3.05l-0.63,1.64
				c-0.02,0.06-0.06,0.11-0.11,0.15s-0.12,0.07-0.2,0.07h-0.71l2.71-6.79h0.93L119.04,72.41z M114.6,69.89h2.53l-1.07-2.76
				c-0.07-0.17-0.14-0.38-0.2-0.64c-0.04,0.13-0.07,0.25-0.1,0.36c-0.03,0.11-0.07,0.21-0.1,0.29L114.6,69.89z"/>
			<path d="M125.79,65.62v0.77h-2.19v6.02h-0.92v-6.02h-2.2v-0.77H125.79z"/>
			<path d="M132.84,65.62v0.75h-3.26v2.25h2.64v0.72h-2.64v2.32h3.26v0.75h-4.18v-6.79H132.84z"/>
			<path d="M138.69,71.68c0.28,0,0.53-0.05,0.75-0.14c0.22-0.09,0.41-0.23,0.56-0.4c0.15-0.17,0.27-0.37,0.35-0.61
				c0.08-0.24,0.12-0.5,0.12-0.78v-4.13h0.91v4.13c0,0.39-0.06,0.75-0.19,1.09c-0.12,0.33-0.3,0.62-0.54,0.87
				c-0.23,0.24-0.52,0.44-0.85,0.58s-0.71,0.21-1.13,0.21c-0.42,0-0.79-0.07-1.13-0.21s-0.62-0.33-0.85-0.58
				c-0.23-0.25-0.41-0.54-0.54-0.87c-0.12-0.33-0.19-0.7-0.19-1.09v-4.13h0.91v4.12c0,0.28,0.04,0.54,0.12,0.78
				c0.08,0.24,0.2,0.44,0.35,0.61c0.15,0.17,0.34,0.3,0.56,0.4C138.16,71.63,138.41,71.68,138.69,71.68z"/>
			<path d="M145.87,69.57v2.83h-0.91v-6.79h1.92c0.43,0,0.8,0.04,1.11,0.13s0.57,0.21,0.77,0.38c0.2,0.17,0.35,0.36,0.45,0.59
				c0.1,0.23,0.15,0.49,0.15,0.78c0,0.24-0.04,0.46-0.11,0.67c-0.08,0.21-0.19,0.4-0.33,0.56c-0.14,0.17-0.32,0.31-0.53,0.42
				c-0.21,0.12-0.44,0.21-0.7,0.26c0.11,0.07,0.21,0.16,0.3,0.29l1.98,2.7h-0.82c-0.17,0-0.29-0.06-0.37-0.19l-1.76-2.42
				c-0.05-0.08-0.11-0.13-0.18-0.16s-0.16-0.05-0.28-0.05H145.87z M145.87,68.91h0.96c0.27,0,0.5-0.03,0.71-0.1
				c0.2-0.06,0.37-0.16,0.51-0.27c0.14-0.12,0.24-0.26,0.31-0.42s0.1-0.35,0.1-0.54c0-0.4-0.13-0.71-0.4-0.91s-0.66-0.31-1.19-0.31
				h-1V68.91z"/>
		</g>
		<g>
			<g>
				<path d="M81.52,48.19c0.71-1.57,1.36-3.03,2.02-4.49c2.2-4.92,4.42-9.84,6.59-14.78c0.31-0.71,0.69-0.98,1.47-0.96
					c2.37,0.05,4.73,0.01,7.1,0.03c0.26,0,0.53,0.22,0.79,0.34c-0.24,0.14-0.47,0.34-0.74,0.42c-0.54,0.16-1.13,0.19-1.65,0.37
					c-0.8,0.28-1.26,0.89-1.35,1.74c-0.06,0.56-0.11,1.13-0.11,1.69c-0.01,6.03,0,12.05,0,18.08c0,0.06,0,0.12,0,0.18
					c0.01,2.66,0.68,3.38,3.33,3.6c0.64,0.05,0.64,0.05,0.69,0.75c-4.27,0-8.54,0-12.85,0c0-0.23,0-0.44,0-0.69
					c0.55-0.06,1.05-0.09,1.56-0.16c1.35-0.2,2.15-1.02,2.15-2.34c0.02-7.04,0.02-14.08,0.02-21.12c0-0.11-0.04-0.21-0.25-0.37
					c-3.62,8.17-7.25,16.34-10.97,24.72c-4.04-7.33-7.98-14.48-11.92-21.63c-0.08,0.02-0.15,0.05-0.23,0.07c0,0.32,0,0.63,0,0.95
					c0,5.46,0,10.92,0,16.38c0,2.41,0.73,3.2,3.15,3.42c0.12,0.01,0.26-0.03,0.35,0.02c0.2,0.11,0.38,0.27,0.57,0.41
					c-0.19,0.13-0.37,0.36-0.57,0.37c-0.81,0.04-1.62,0.02-2.43,0.02c-1.74,0-3.48,0.01-5.21-0.01c-0.21,0-0.41-0.2-0.62-0.3
					c0.19-0.16,0.37-0.33,0.58-0.48c0.06-0.04,0.18-0.01,0.26-0.02c2.47-0.24,3.19-1.03,3.19-3.48c0-6.26,0-12.53,0-18.79
					c0-2.35-0.76-3.15-3.11-3.38c-0.27-0.03-0.51-0.25-0.77-0.39c0.26-0.13,0.51-0.36,0.77-0.37c1.2-0.04,2.4-0.03,3.6-0.01
					c2.49,0.03,4.12,1.37,5.26,3.45c2.14,3.89,4.28,7.79,6.42,11.68c0.82,1.49,1.63,2.98,2.45,4.47
					C81.16,47.75,81.31,47.9,81.52,48.19z"/>
				<path d="M45.69,55.22c-2.45,0-4.91,0.02-7.36-0.02c-0.24,0-0.55-0.29-0.7-0.53c-2.31-3.8-4.63-7.59-6.85-11.44
					c-0.55-0.95-1.15-1.28-2.27-0.96c-0.02,0.25-0.05,0.56-0.06,0.88c0,2.8-0.01,5.61,0,8.41c0,1.98,0.57,2.62,2.53,2.85
					c0.65,0.08,0.65,0.08,0.71,0.82c-0.29,0-0.58,0-0.86,0c-3.3,0-6.59,0.01-9.89-0.02c-0.31,0-0.61-0.24-0.92-0.37
					c0.27-0.15,0.53-0.4,0.82-0.44c1.73-0.25,2.27-0.78,2.44-2.52c0.03-0.33,0.03-0.66,0.03-0.98c0-6.2,0-12.41,0-18.61
					c0-0.33,0.01-0.66-0.03-0.98c-0.16-1.75-0.68-2.27-2.42-2.55c-0.22-0.04-0.41-0.29-0.61-0.45c0.21-0.11,0.43-0.31,0.64-0.31
					c4.61,0.01,9.23-0.01,13.84,0.1c2.02,0.05,3.94,0.63,5.7,1.7c4,2.44,3.81,8.88-0.52,10.82c-1.33,0.59-2.73,1.01-4.19,1.55
					c0.93,1.5,1.88,3.04,2.83,4.58c1.08,1.75,2.18,3.5,3.25,5.25c0.8,1.31,1.81,2.28,3.44,2.43c0.23,0.02,0.43,0.32,0.64,0.5
					C45.83,55.02,45.76,55.12,45.69,55.22z M28.51,41.22c1.69,0,3.28,0.12,4.85-0.03c2.12-0.2,3.61-1.39,4.27-3.44
					c0.56-1.74,0.55-3.53,0.03-5.28c-0.45-1.52-1.41-2.63-2.92-3.17c-2.02-0.73-4.11-0.42-6.23-0.46
					C28.51,33.04,28.51,37.1,28.51,41.22z"/>
				<path d="M124.43,45.4c0,3.25,0,6.46,0,9.81c-0.44,0-0.75,0-1.07,0c-6.71,0-13.42,0-20.13,0c-0.21,0-0.43,0.03-0.63-0.02
					c-0.11-0.03-0.28-0.17-0.29-0.26c-0.01-0.15,0.08-0.32,0.17-0.46c0.03-0.05,0.17-0.04,0.25-0.06c2.36-0.57,2.63-0.91,2.63-3.32
					c0-6.41,0-12.82,0-19.23c0-2.17-0.43-2.67-2.58-3.12c-0.18-0.04-0.32-0.26-0.48-0.39c0.17-0.12,0.32-0.3,0.51-0.36
					c0.19-0.06,0.41-0.02,0.62-0.02c6.44,0,12.88,0.02,19.32-0.02c0.94-0.01,1.12,0.27,1.13,1.15c0.02,2.68,0.16,5.36,0.22,8.04
					c0.01,0.24-0.19,0.48-0.28,0.72c-0.2-0.21-0.49-0.38-0.58-0.63c-0.75-1.94-1.38-3.93-2.22-5.82c-0.7-1.55-2.01-2.39-3.8-2.37
					c-1.61,0.01-3.22-0.1-4.83-0.05c-1.47,0.04-1.91,0.56-1.91,2c0,2.95,0,5.9,0,8.86c0,0.26,0,0.53,0,0.85
					c1.95,0,3.83,0.07,5.7-0.03c0.97-0.05,1.64-0.71,1.88-1.68c0.17-0.69,0.27-1.39,0.46-2.43c0.3,0.39,0.61,0.61,0.61,0.83
					c0.03,2.5,0.03,5.01,0.01,7.51c0,0.21-0.22,0.41-0.34,0.61c-0.13-0.2-0.34-0.38-0.39-0.6c-0.13-0.64-0.13-1.31-0.29-1.93
					c-0.21-0.82-0.78-1.37-1.67-1.38c-1.94-0.03-3.89-0.01-5.91-0.01c-0.02,0.29-0.05,0.55-0.05,0.81c0,3.31,0,6.62,0,9.93
					c0,1.21,0.38,1.81,1.57,1.84c2.23,0.06,4.48,0.02,6.71-0.19c1.42-0.13,2.32-1.25,2.85-2.49c0.76-1.77,1.38-3.61,2.03-5.42
					C123.82,45.64,123.85,45.15,124.43,45.4z"/>
				<path d="M139.99,55.66c-3.62-0.09-6.49-0.68-8.9-2.65c-0.97-0.79-1.7-1.75-1.93-3.03c-0.23-1.27,0.39-2.17,1.69-2.3
					c1.04-0.11,1.99,0.19,2.73,0.89c0.69,0.65,1.25,1.43,1.85,2.17c0.22,0.28,0.38,0.61,0.58,0.9c2.1,3.11,5.87,3.83,9.02,1.73
					c2.4-1.6,2.5-4.64,0.03-6.21c-1.85-1.18-3.9-2.08-5.9-3.01c-2.31-1.07-4.65-2.07-6.63-3.71c-3.33-2.76-3.74-7.39-0.88-10.17
					c1.49-1.45,3.33-2.19,5.35-2.53c3.19-0.54,6.26-0.18,9.13,1.4c0.36,0.2,0.7,0.47,1,0.75c0.88,0.82,1.07,1.96,0.51,2.73
					c-0.59,0.81-1.98,1.11-2.93,0.51c-0.62-0.39-1.12-0.97-1.65-1.49c-0.31-0.31-0.56-0.7-0.85-1.04c-2.21-2.58-6.13-2.75-8.57-0.38
					c-1.64,1.59-1.62,3.69,0.16,5.12c0.8,0.64,1.75,1.14,2.69,1.58c2.71,1.26,5.49,2.37,8.16,3.71c2.14,1.07,3.81,2.69,4.47,5.11
					c1.2,4.46-1.24,8.34-5.99,9.44C141.91,55.47,140.65,55.56,139.99,55.66z"/>
				<path d="M59.04,55.17c-3.61,0-7.22,0-10.83,0c-0.05-0.07-0.11-0.15-0.16-0.22c0.2-0.18,0.38-0.5,0.59-0.52
					c2.11-0.16,2.46-1.52,2.46-3.08c0-6.47,0-3.12,0-9.59c0-1.66-0.35-3.04-2.53-3.21c-0.15-0.01-0.29-0.28-0.43-0.43
					c0.15-0.11,0.3-0.31,0.46-0.31c1.71,0,3.42-0.08,5.11,0.08c1.63,0.16,2.45,1.44,2.47,3.5c0.02,2.47,0-2.12,0,0.36
					c0,4.08,0,5.42,0,9.5c0,2.22,0.39,2.69,2.52,3.17c0.21,0.05,0.38,0.33,0.56,0.51C59.19,55.01,59.12,55.09,59.04,55.17z"/>
			</g>
		</g>
	</g>
	<g>
		<path d="M52.48,35.47c-0.08,0-0.13-0.03-0.18-0.09c-0.17-0.21-0.33-0.43-0.5-0.64c-1.04-1.32-2.07-2.65-3.11-3.97
			c-0.06-0.07-0.12-0.15-0.17-0.22c-0.07-0.09-0.07-0.19-0.01-0.28c0.44-0.71,0.87-1.42,1.31-2.13c0.06-0.1,0.14-0.14,0.25-0.14
			c1.6,0,3.2,0,4.8,0c0.11,0,0.19,0.04,0.25,0.13c0.5,0.71,1,1.43,1.5,2.14c0.06,0.09,0.07,0.18,0,0.27
			c-0.13,0.16-0.26,0.32-0.39,0.48c-1.13,1.38-2.26,2.77-3.39,4.15c-0.06,0.08-0.13,0.15-0.19,0.23
			C52.61,35.44,52.55,35.47,52.48,35.47z M52.49,34.1c0.42-1.16,0.85-2.31,1.27-3.46c-0.84,0-1.68,0-2.52,0
			C51.66,31.79,52.07,32.95,52.49,34.1z M52.96,34.23C52.96,34.23,52.96,34.23,52.96,34.23c0.99-1.19,1.96-2.39,2.95-3.59
			c-0.03,0-0.04,0-0.06,0c-0.51,0-1.01,0-1.52,0c-0.04,0-0.06,0.01-0.08,0.05c-0.4,1.1-0.81,2.2-1.21,3.3
			C53.02,34.07,52.99,34.15,52.96,34.23z M51.99,34.19C51.99,34.19,52,34.19,51.99,34.19c0-0.01,0-0.03,0-0.04
			c-0.42-1.16-0.84-2.32-1.26-3.48c-0.01-0.03-0.03-0.04-0.06-0.04c-0.47,0-0.94,0-1.41,0c-0.01,0-0.03,0-0.05,0
			C50.14,31.83,51.07,33.01,51.99,34.19z M51.38,30.15c0.73,0,1.44,0,2.17,0c-0.36-0.52-0.71-1.04-1.07-1.56
			C52.11,29.11,51.75,29.63,51.38,30.15z M52.99,28.48c0.34,0.5,0.68,0.99,1.02,1.48c0.18-0.5,0.36-0.99,0.54-1.48
			C54.03,28.48,53.52,28.48,52.99,28.48z M50.4,28.48c0.19,0.48,0.37,0.95,0.55,1.43c0.34-0.48,0.67-0.95,1.01-1.43
			C51.44,28.48,50.93,28.48,50.4,28.48z M54.46,30.15c0.5,0,0.99,0,1.49,0c-0.33-0.47-0.65-0.93-0.98-1.39
			C54.79,29.22,54.63,29.68,54.46,30.15z M50.53,30.15c-0.18-0.46-0.35-0.91-0.53-1.38c-0.29,0.46-0.56,0.92-0.85,1.38
			C49.61,30.15,50.07,30.15,50.53,30.15z"/>
	</g>
</g>
</svg>
